<?xml version="1.0" encoding="UTF-8"?>
<!-- Do not edit this file with editors other than draw.io -->
<!DOCTYPE svg PUBLIC "-//W3C//DTD SVG 1.1//EN" "http://www.w3.org/Graphics/SVG/1.1/DTD/svg11.dtd">
<svg xmlns="http://www.w3.org/2000/svg" xmlns:xlink="http://www.w3.org/1999/xlink" version="1.1" width="1505px" height="1436px" viewBox="-0.5 -0.5 1505 1436" content="&lt;mxfile host=&quot;app.diagrams.net&quot; modified=&quot;2024-07-21T03:07:26.758Z&quot; agent=&quot;Mozilla/5.0 (Windows NT 10.0; Win64; x64) AppleWebKit/537.36 (KHTML, like Gecko) Chrome/126.0.0.0 Safari/537.36&quot; etag=&quot;DJ-EM8wFEpTLooa-1osh&quot; version=&quot;23.1.2&quot; type=&quot;github&quot;&gt;&#10;  &lt;diagram name=&quot;Page-1&quot; id=&quot;c5gfZf8RnEg3KqXKuJ1z&quot;&gt;&#10;    &lt;mxGraphModel dx=&quot;4963&quot; dy=&quot;2849&quot; grid=&quot;1&quot; gridSize=&quot;10&quot; guides=&quot;1&quot; tooltips=&quot;1&quot; connect=&quot;1&quot; arrows=&quot;1&quot; fold=&quot;1&quot; page=&quot;1&quot; pageScale=&quot;1&quot; pageWidth=&quot;827&quot; pageHeight=&quot;1169&quot; math=&quot;0&quot; shadow=&quot;0&quot;&gt;&#10;      &lt;root&gt;&#10;        &lt;mxCell id=&quot;0&quot; /&gt;&#10;        &lt;mxCell id=&quot;1&quot; parent=&quot;0&quot; /&gt;&#10;        &lt;mxCell id=&quot;5MGa1IYSEZd20oZaf1gX-35&quot; value=&quot;&quot; style=&quot;edgeStyle=none;rounded=0;orthogonalLoop=1;jettySize=auto;html=1;&quot; edge=&quot;1&quot; parent=&quot;1&quot; source=&quot;5MGa1IYSEZd20oZaf1gX-11&quot; target=&quot;5MGa1IYSEZd20oZaf1gX-34&quot;&gt;&#10;          &lt;mxGeometry relative=&quot;1&quot; as=&quot;geometry&quot; /&gt;&#10;        &lt;/mxCell&gt;&#10;        &lt;mxCell id=&quot;5MGa1IYSEZd20oZaf1gX-37&quot; value=&quot;&quot; style=&quot;edgeStyle=none;rounded=0;orthogonalLoop=1;jettySize=auto;html=1;&quot; edge=&quot;1&quot; parent=&quot;1&quot; source=&quot;5MGa1IYSEZd20oZaf1gX-11&quot; target=&quot;5MGa1IYSEZd20oZaf1gX-36&quot;&gt;&#10;          &lt;mxGeometry relative=&quot;1&quot; as=&quot;geometry&quot; /&gt;&#10;        &lt;/mxCell&gt;&#10;        &lt;mxCell id=&quot;5MGa1IYSEZd20oZaf1gX-39&quot; value=&quot;&quot; style=&quot;edgeStyle=none;rounded=0;orthogonalLoop=1;jettySize=auto;html=1;&quot; edge=&quot;1&quot; parent=&quot;1&quot; source=&quot;5MGa1IYSEZd20oZaf1gX-11&quot; target=&quot;5MGa1IYSEZd20oZaf1gX-38&quot;&gt;&#10;          &lt;mxGeometry relative=&quot;1&quot; as=&quot;geometry&quot; /&gt;&#10;        &lt;/mxCell&gt;&#10;        &lt;mxCell id=&quot;5MGa1IYSEZd20oZaf1gX-41&quot; value=&quot;&quot; style=&quot;edgeStyle=none;rounded=0;orthogonalLoop=1;jettySize=auto;html=1;&quot; edge=&quot;1&quot; parent=&quot;1&quot; source=&quot;5MGa1IYSEZd20oZaf1gX-11&quot; target=&quot;5MGa1IYSEZd20oZaf1gX-40&quot;&gt;&#10;          &lt;mxGeometry relative=&quot;1&quot; as=&quot;geometry&quot; /&gt;&#10;        &lt;/mxCell&gt;&#10;        &lt;mxCell id=&quot;5MGa1IYSEZd20oZaf1gX-42&quot; value=&quot;&quot; style=&quot;edgeStyle=none;rounded=0;orthogonalLoop=1;jettySize=auto;html=1;&quot; edge=&quot;1&quot; parent=&quot;1&quot; source=&quot;5MGa1IYSEZd20oZaf1gX-11&quot; target=&quot;5MGa1IYSEZd20oZaf1gX-38&quot;&gt;&#10;          &lt;mxGeometry relative=&quot;1&quot; as=&quot;geometry&quot; /&gt;&#10;        &lt;/mxCell&gt;&#10;        &lt;mxCell id=&quot;5MGa1IYSEZd20oZaf1gX-43&quot; value=&quot;&quot; style=&quot;edgeStyle=none;rounded=0;orthogonalLoop=1;jettySize=auto;html=1;&quot; edge=&quot;1&quot; parent=&quot;1&quot; source=&quot;5MGa1IYSEZd20oZaf1gX-11&quot; target=&quot;5MGa1IYSEZd20oZaf1gX-40&quot;&gt;&#10;          &lt;mxGeometry relative=&quot;1&quot; as=&quot;geometry&quot; /&gt;&#10;        &lt;/mxCell&gt;&#10;        &lt;mxCell id=&quot;5MGa1IYSEZd20oZaf1gX-44&quot; value=&quot;&quot; style=&quot;edgeStyle=none;rounded=0;orthogonalLoop=1;jettySize=auto;html=1;&quot; edge=&quot;1&quot; parent=&quot;1&quot; source=&quot;5MGa1IYSEZd20oZaf1gX-11&quot; target=&quot;5MGa1IYSEZd20oZaf1gX-38&quot;&gt;&#10;          &lt;mxGeometry relative=&quot;1&quot; as=&quot;geometry&quot; /&gt;&#10;        &lt;/mxCell&gt;&#10;        &lt;mxCell id=&quot;5MGa1IYSEZd20oZaf1gX-11&quot; value=&quot;&quot; style=&quot;shape=mxgraph.signs.science.nuclear_2;html=1;pointerEvents=1;fillColor=#FF8000;strokeColor=#FF8000;verticalLabelPosition=bottom;verticalAlign=top;align=center;sketch=0;shadow=0;&quot; vertex=&quot;1&quot; parent=&quot;1&quot;&gt;&#10;          &lt;mxGeometry x=&quot;240&quot; y=&quot;27.5&quot; width=&quot;390&quot; height=&quot;405&quot; as=&quot;geometry&quot; /&gt;&#10;        &lt;/mxCell&gt;&#10;        &lt;mxCell id=&quot;5MGa1IYSEZd20oZaf1gX-12&quot; value=&quot;&quot; style=&quot;dashed=0;outlineConnect=0;html=1;align=center;labelPosition=center;verticalLabelPosition=bottom;verticalAlign=top;shape=mxgraph.weblogos.joomla;fillColor=#1F457D;gradientColor=#081220&quot; vertex=&quot;1&quot; parent=&quot;1&quot;&gt;&#10;          &lt;mxGeometry x=&quot;-600&quot; y=&quot;-610&quot; width=&quot;360&quot; height=&quot;360&quot; as=&quot;geometry&quot; /&gt;&#10;        &lt;/mxCell&gt;&#10;        &lt;mxCell id=&quot;5MGa1IYSEZd20oZaf1gX-27&quot; value=&quot;&quot; style=&quot;dashed=0;outlineConnect=0;html=1;align=center;labelPosition=center;verticalLabelPosition=bottom;verticalAlign=top;shape=mxgraph.weblogos.last.fm;fillColor=#F33543;gradientColor=#BD0E11;rotation=0;&quot; vertex=&quot;1&quot; parent=&quot;1&quot;&gt;&#10;          &lt;mxGeometry x=&quot;-680&quot; y=&quot;150&quot; width=&quot;257.2&quot; height=&quot;160&quot; as=&quot;geometry&quot; /&gt;&#10;        &lt;/mxCell&gt;&#10;        &lt;mxCell id=&quot;5MGa1IYSEZd20oZaf1gX-33&quot; value=&quot;&quot; style=&quot;dashed=0;outlineConnect=0;html=1;align=center;labelPosition=center;verticalLabelPosition=bottom;verticalAlign=top;shape=mxgraph.weblogos.last.fm;fillColor=#F33543;gradientColor=#BD0E11;rotation=0;flipH=1;&quot; vertex=&quot;1&quot; parent=&quot;1&quot;&gt;&#10;          &lt;mxGeometry x=&quot;-790&quot; y=&quot;150&quot; width=&quot;257.2&quot; height=&quot;160&quot; as=&quot;geometry&quot; /&gt;&#10;        &lt;/mxCell&gt;&#10;        &lt;mxCell id=&quot;5MGa1IYSEZd20oZaf1gX-34&quot; value=&quot;&quot; style=&quot;ellipse;whiteSpace=wrap;html=1;verticalAlign=top;fillColor=#CC0000;strokeColor=#FF8000;sketch=0;shadow=1;&quot; vertex=&quot;1&quot; parent=&quot;1&quot;&gt;&#10;          &lt;mxGeometry x=&quot;395&quot; y=&quot;480&quot; width=&quot;80&quot; height=&quot;80&quot; as=&quot;geometry&quot; /&gt;&#10;        &lt;/mxCell&gt;&#10;        &lt;mxCell id=&quot;5MGa1IYSEZd20oZaf1gX-36&quot; value=&quot;&quot; style=&quot;ellipse;whiteSpace=wrap;html=1;verticalAlign=top;fillColor=#CC0000;strokeColor=#FF8000;sketch=0;shadow=1;&quot; vertex=&quot;1&quot; parent=&quot;1&quot;&gt;&#10;          &lt;mxGeometry x=&quot;395&quot; y=&quot;-100&quot; width=&quot;80&quot; height=&quot;80&quot; as=&quot;geometry&quot; /&gt;&#10;        &lt;/mxCell&gt;&#10;        &lt;mxCell id=&quot;5MGa1IYSEZd20oZaf1gX-38&quot; value=&quot;&quot; style=&quot;rhombus;whiteSpace=wrap;html=1;verticalAlign=top;fillColor=#CCCC00;strokeColor=#FF8000;sketch=0;shadow=1;&quot; vertex=&quot;1&quot; parent=&quot;1&quot;&gt;&#10;          &lt;mxGeometry x=&quot;630&quot; y=&quot;200&quot; width=&quot;80&quot; height=&quot;80&quot; as=&quot;geometry&quot; /&gt;&#10;        &lt;/mxCell&gt;&#10;        &lt;mxCell id=&quot;5MGa1IYSEZd20oZaf1gX-40&quot; value=&quot;&quot; style=&quot;rhombus;whiteSpace=wrap;html=1;verticalAlign=top;fillColor=#CCCC00;strokeColor=#FF8000;sketch=0;shadow=1;&quot; vertex=&quot;1&quot; parent=&quot;1&quot;&gt;&#10;          &lt;mxGeometry x=&quot;160&quot; y=&quot;190&quot; width=&quot;80&quot; height=&quot;80&quot; as=&quot;geometry&quot; /&gt;&#10;        &lt;/mxCell&gt;&#10;        &lt;mxCell id=&quot;5MGa1IYSEZd20oZaf1gX-45&quot; value=&quot;&quot; style=&quot;shape=mxgraph.signs.tech.usb;html=1;pointerEvents=1;fillColor=#CC6600;strokeColor=none;verticalLabelPosition=bottom;verticalAlign=top;align=center;sketch=0;rotation=0;&quot; vertex=&quot;1&quot; parent=&quot;1&quot;&gt;&#10;          &lt;mxGeometry x=&quot;50&quot; y=&quot;470&quot; width=&quot;172.42&quot; height=&quot;355.42&quot; as=&quot;geometry&quot; /&gt;&#10;        &lt;/mxCell&gt;&#10;        &lt;mxCell id=&quot;5MGa1IYSEZd20oZaf1gX-29&quot; value=&quot;&quot; style=&quot;dashed=0;outlineConnect=0;html=1;align=center;labelPosition=center;verticalLabelPosition=bottom;verticalAlign=top;shape=mxgraph.weblogos.linkagogo;fillColor=#F6F5FA;gradientColor=#C8C1E1;shadow=1;&quot; vertex=&quot;1&quot; parent=&quot;1&quot;&gt;&#10;          &lt;mxGeometry x=&quot;140&quot; y=&quot;-490&quot; width=&quot;352.2&quot; height=&quot;300&quot; as=&quot;geometry&quot; /&gt;&#10;        &lt;/mxCell&gt;&#10;        &lt;mxCell id=&quot;5MGa1IYSEZd20oZaf1gX-47&quot; value=&quot;&quot; style=&quot;shape=mxgraph.signs.science.nuclear_1;html=1;pointerEvents=1;fillColor=#CC0000;strokeColor=#CC0000;verticalLabelPosition=bottom;verticalAlign=top;align=center;sketch=0;&quot; vertex=&quot;1&quot; parent=&quot;1&quot;&gt;&#10;          &lt;mxGeometry x=&quot;-750&quot; y=&quot;400&quot; width=&quot;390&quot; height=&quot;310&quot; as=&quot;geometry&quot; /&gt;&#10;        &lt;/mxCell&gt;&#10;        &lt;mxCell id=&quot;5MGa1IYSEZd20oZaf1gX-48&quot; value=&quot;&quot; style=&quot;rhombus;whiteSpace=wrap;html=1;&quot; vertex=&quot;1&quot; parent=&quot;1&quot;&gt;&#10;          &lt;mxGeometry x=&quot;350&quot; y=&quot;180&quot; width=&quot;80&quot; height=&quot;80&quot; as=&quot;geometry&quot; /&gt;&#10;        &lt;/mxCell&gt;&#10;      &lt;/root&gt;&#10;    &lt;/mxGraphModel&gt;&#10;  &lt;/diagram&gt;&#10;&lt;/mxfile&gt;&#10;" resource="https://app.diagrams.net/#Hshrikeshpandey%2FDrawIO%2Fmain%2FRudra.svg"><defs><linearGradient x1="0%" y1="0%" x2="0%" y2="100%" id="mx-gradient-f33543-1-bd0e11-1-s-0"><stop offset="0%" style="stop-color: rgb(243, 53, 67); stop-opacity: 1;"/><stop offset="100%" style="stop-color: rgb(189, 14, 17); stop-opacity: 1;"/></linearGradient></defs><g><path d="M 1225 1042.5 L 1225 1083.63" fill="none" stroke="rgb(0, 0, 0)" stroke-miterlimit="10" pointer-events="stroke"/><path d="M 1225 1088.88 L 1221.5 1081.88 L 1225 1083.63 L 1228.5 1081.88 Z" fill="rgb(0, 0, 0)" stroke="rgb(0, 0, 0)" stroke-miterlimit="10" pointer-events="all"/><path d="M 1225 637.5 L 1225 596.37" fill="none" stroke="rgb(0, 0, 0)" stroke-miterlimit="10" pointer-events="stroke"/><path d="M 1225 591.12 L 1228.5 598.12 L 1225 596.37 L 1221.5 598.12 Z" fill="rgb(0, 0, 0)" stroke="rgb(0, 0, 0)" stroke-miterlimit="10" pointer-events="all"/><rect x="1030" y="637.5" width="390" height="405" fill="none" stroke="none" pointer-events="all"/><path d="M 1139.15 840 C 1139.15 728.17 1177.6 637.5 1225 637.5 C 1272.43 637.5 1310.85 728.17 1310.85 840 C 1310.85 951.83 1272.4 1042.5 1225 1042.5 C 1177.6 1042.5 1139.15 951.83 1139.15 840 Z M 1225 1025.34 C 1268.4 1025.34 1303.57 942.35 1303.57 840 C 1303.57 737.61 1268.4 654.66 1225 654.66 C 1181.6 654.66 1146.43 737.65 1146.43 840 C 1146.43 942.35 1181.6 1025.34 1225 1025.34 Z M 1267.92 916.08 C 1173.29 972.02 1077.4 983.29 1053.7 941.25 C 1030 899.21 1087.48 819.82 1182.08 763.88 C 1276.71 707.94 1372.6 696.71 1396.3 738.75 C 1420 780.75 1362.52 860.18 1267.92 916.08 Z M 1381.82 747.33 C 1360.14 708.84 1272.32 719.18 1185.75 770.33 C 1099.11 821.53 1046.5 894.22 1068.22 932.67 C 1089.9 971.16 1177.68 960.82 1264.28 909.67 C 1350.89 858.47 1403.5 785.78 1381.82 747.33 Z M 1267.92 763.88 C 1362.52 819.82 1420 899.21 1396.3 941.25 C 1372.6 983.29 1276.67 972.02 1182.08 916.08 C 1087.48 860.18 1030 780.75 1053.7 738.75 C 1077.4 696.71 1173.29 707.98 1267.92 763.88 Z M 1068.22 747.33 C 1046.54 785.82 1099.15 858.47 1185.75 909.67 C 1272.36 960.86 1360.14 971.16 1381.82 932.67 C 1403.5 894.18 1350.89 821.53 1264.28 770.33 C 1177.68 719.14 1089.9 708.84 1068.22 747.33 Z" fill="#ff8000" stroke="#ff8000" stroke-miterlimit="10" pointer-events="all"/><ellipse cx="1225" cy="840" rx="31.926354230066956" ry="32.97366828087167" fill="#ff8000" stroke="#ff8000" pointer-events="all"/><path d="M 442.82 223.05 L 361.87 304.22 C 340 325.59 311.58 330.13 283.91 322.1 C 280.8 342.88 262.47 359.2 237.74 359.2 C 213.24 359.2 190 339.26 190 312.02 C 190 287.6 207.98 266 230.51 264.05 C 223.58 232.35 233.63 206.18 253.85 186.87 L 289.65 223.1 C 279.82 231.06 273.66 247.99 285.74 264.58 C 300.36 280.43 319.7 273.66 329.9 264.14 L 407.01 186.82 Z" fill="#096dab" stroke="none" pointer-events="all"/><path d="M 417.39 203.61 L 341.14 279.92 C 335.96 285.16 324.31 288.12 313.43 287.11 C 304.79 285.54 296.77 283.51 291.57 279.4 C 307.67 282.44 319.94 282.16 332.43 270.45 L 407.96 193.92 Z M 232.33 313.08 C 222.63 313.08 208.91 309.07 208.04 294.12 C 208.04 282.79 221.25 276.43 234.11 276.43 C 249.13 276.43 257.55 286.15 257.55 296.2 C 257.55 303.32 251.48 313 232.33 313.08 Z" fill="#b8d5e7" stroke="none" pointer-events="all"/><path d="M 372.85 299.56 L 409 263.87 C 420.42 277.63 441.86 279.52 453.68 263.79 C 464.9 250.5 461.09 236.66 451.16 223.8 L 373.9 145.23 L 409.43 109.3 L 488.45 189.95 C 499.42 202.1 506.83 215.64 509.44 231.08 C 512.03 247.59 510.18 256.11 507.88 264.4 C 528.9 271.42 550 286.84 550 314.54 C 549.02 336.74 530.74 360 502.61 360 C 482.54 360 460.16 347.49 455.16 319.36 C 435.59 325.64 424.64 327.6 406.22 321.39 C 396.84 317.99 387.07 313.7 372.85 299.56 Z" fill="#e22828" stroke="none" pointer-events="all"/><path d="M 512.23 315.17 C 497.71 315.17 486.7 307.43 486.7 295.97 C 486.7 284.93 498.71 277.55 512.32 277.55 C 524.45 277.55 536.38 286.08 536.38 296.28 C 536.38 308.24 523.82 315.17 512.23 315.17 Z M 499.34 266.94 C 502.74 247.27 495.45 230.81 481.22 215.03 L 396.11 127.77 L 405.78 118.04 L 489.93 205.2 C 503.76 219.26 510.28 246.65 499.34 266.94 Z" fill="#f7c0c0" stroke="none" pointer-events="all"/><path d="M 329.81 256.33 L 248.89 174.95 C 230.87 154.32 221.99 127.29 231.08 97.07 C 218.34 93.03 196.59 85.48 193.99 49.47 C 193.99 24.46 214.49 1.9 243.23 1.9 C 268.96 1.9 287.11 23.68 289.26 42.17 C 317.04 37.57 343.48 41.15 365.55 66.87 L 329.59 102.8 C 324 92.48 303.51 84.51 285.91 100.14 C 273.89 113.14 278.76 130.98 287.13 140.92 L 365.36 220.02 Z" fill="#73b162" stroke="none" pointer-events="all"/><path d="M 349.48 231.39 L 275.28 156.53 C 260.5 140.33 265.03 117.56 273.89 104.09 C 269.97 118.84 272.36 133 282.25 144.52 L 358.71 221.76 Z M 241.07 59.43 C 228.44 59.43 207.34 52.74 207.34 36.37 C 207.34 21.65 219.1 9.47 239.74 9.47 C 260.08 9.47 273.19 19.43 273.19 34.5 C 273.19 48.94 258.57 59.43 241.07 59.43 Z M 352.72 79.19 C 347.54 72.65 343.12 65.29 326.6 55.95 C 315.38 50.3 302.91 47.05 289.13 46.3 C 298.67 45.18 310.24 43.29 326.51 47.35 C 346.86 54.28 354.03 62.67 361.96 69.71 Z" fill="#ddecd9" stroke="none" pointer-events="all"/><path d="M 296.88 141.93 L 378.16 60.77 C 391 49.58 402.86 44.28 414.31 41.48 C 429.91 38.45 441.97 39.3 450.82 42.89 C 457.85 14.77 480.9 0 499.78 0 C 519.37 0 546.21 16.6 546.21 48.32 C 546.21 74.2 527.33 93.05 505.96 95.5 C 512.82 117.39 513.33 124.53 509.17 139.69 C 504.21 156.43 497.56 167.65 485.74 179.24 L 450.12 142.24 C 461.29 134.73 467.48 112.78 451.34 97.87 C 439.41 87.73 425.71 87.56 409.61 101.02 L 332.45 177.95 Z" fill="#f9aa64" stroke="none" pointer-events="all"/><path d="M 305.87 145.64 L 391.97 60.42 C 400.9 52.72 412.76 48.25 421.29 46.65 C 428.89 45.23 448.32 46.95 454.47 52.48 C 444.09 48.16 421.44 49.99 401.42 70.15 L 315.1 154.94 Z M 501.25 58.06 C 482.36 58.06 467.98 47.39 467.98 32.27 C 467.98 18 484.13 7.8 501.51 7.8 C 517.92 7.8 534.18 17.42 534.18 34.2 C 534.18 45.38 520.66 58.06 501.25 58.06 Z" fill="#fde5cf" stroke="none" pointer-events="all"/><path d="M 247.13 887.07 C 234.3 905.85 212.59 918.57 186.73 918.57 C 148.42 918.57 110 887.88 110 839.56 C 110 798.64 140.03 760.57 187.53 760.57 C 214.96 760.57 241.93 776.8 255.54 806.45 C 265.17 828.32 269.91 846.32 282.47 871.32 C 290.96 890.73 303.35 895.21 315.06 895.32 C 327.59 894.63 339.98 887.44 344.11 877.88 C 348.05 868.88 345.51 861.69 339.71 855.2 C 335.6 850.61 320.8 845.2 311.68 843.54 C 296.91 840.39 275.35 828.01 274.95 800.7 C 275.15 777.11 294.67 761.28 311.73 760.61 C 334.11 760 346 775.04 349.37 784.89 L 332.93 793.31 C 329.63 786.08 322.61 778.65 310.5 780.29 C 299.47 782.44 293.28 793.08 293.4 801.59 C 295.04 817.89 307.19 822.02 312.31 822.58 C 329.51 823.77 347.89 831.92 358.11 845.45 C 366.12 855.06 367.2 871.21 361.56 885.8 C 355.74 900.23 343.52 914.46 321.07 917.42 C 294.16 920 275.41 903.76 266.24 881.57 C 256.49 861.06 246.73 839.42 236.91 812.59 C 232.04 801.93 218.92 780.5 184.1 779.44 C 161.81 780.31 131.34 796.99 127.84 837.53 C 128.22 877.85 159.51 900.44 186.93 899.88 C 210.13 898.97 228.02 885.9 236.43 869.67 Z" fill="url(#mx-gradient-f33543-1-bd0e11-1-s-0)" stroke="none" pointer-events="all"/><path d="M 137.13 887.07 C 124.3 905.85 102.59 918.57 76.73 918.57 C 38.42 918.57 0 887.88 0 839.56 C 0 798.64 30.03 760.57 77.53 760.57 C 104.96 760.57 131.93 776.8 145.54 806.45 C 155.17 828.32 159.91 846.32 172.47 871.32 C 180.96 890.73 193.35 895.21 205.06 895.32 C 217.59 894.63 229.98 887.44 234.11 877.88 C 238.05 868.88 235.51 861.69 229.71 855.2 C 225.6 850.61 210.8 845.2 201.68 843.54 C 186.91 840.39 165.35 828.01 164.95 800.7 C 165.15 777.11 184.67 761.28 201.73 760.61 C 224.11 760 236 775.04 239.37 784.89 L 222.93 793.31 C 219.63 786.08 212.61 778.65 200.5 780.29 C 189.47 782.44 183.28 793.08 183.4 801.59 C 185.04 817.89 197.19 822.02 202.31 822.58 C 219.51 823.77 237.89 831.92 248.11 845.45 C 256.12 855.06 257.2 871.21 251.56 885.8 C 245.74 900.23 233.52 914.46 211.07 917.42 C 184.16 920 165.41 903.76 156.24 881.57 C 146.49 861.06 136.73 839.42 126.91 812.59 C 122.04 801.93 108.92 780.5 74.1 779.44 C 51.81 780.31 21.34 796.99 17.84 837.53 C 18.22 877.85 49.51 900.44 76.93 899.88 C 100.13 898.97 118.02 885.9 126.43 869.67 Z" fill="url(#mx-gradient-f33543-1-bd0e11-1-s-0)" stroke="none" transform="translate(128.6,0)scale(-1,1)translate(-128.6,0)" pointer-events="all"/><ellipse cx="1225" cy="1130" rx="40" ry="40" fill="#000000" stroke="#000000" pointer-events="all" transform="translate(2,3)" opacity="0.25"/><ellipse cx="1225" cy="1130" rx="40" ry="40" fill="#cc0000" stroke="#ff8000" pointer-events="all"/><ellipse cx="1225" cy="550" rx="40" ry="40" fill="#000000" stroke="#000000" pointer-events="all" transform="translate(2,3)" opacity="0.25"/><ellipse cx="1225" cy="550" rx="40" ry="40" fill="#cc0000" stroke="#ff8000" pointer-events="all"/><path d="M 1460 810 L 1500 850 L 1460 890 L 1420 850 Z" fill="#000000" stroke="#000000" stroke-miterlimit="10" pointer-events="all" transform="translate(2,3)" opacity="0.25"/><path d="M 1460 810 L 1500 850 L 1460 890 L 1420 850 Z" fill="#cccc00" stroke="#ff8000" stroke-miterlimit="10" pointer-events="all"/><path d="M 990 800 L 1030 840 L 990 880 L 950 840 Z" fill="#000000" stroke="#000000" stroke-miterlimit="10" pointer-events="all" transform="translate(2,3)" opacity="0.25"/><path d="M 990 800 L 1030 840 L 990 880 L 950 840 Z" fill="#cccc00" stroke="#ff8000" stroke-miterlimit="10" pointer-events="all"/><rect x="840" y="1080" width="172.42" height="355.42" fill="none" stroke="none" pointer-events="all"/><path d="M 926.25 1080 L 901.34 1119.47 L 919.11 1119.47 L 919.11 1321.27 L 873.77 1281.98 C 870.87 1278.67 868.79 1274.27 868.67 1269.77 C 868.67 1251.56 868.67 1240.75 868.67 1236.79 C 877.06 1234.08 883.1 1226.84 883.1 1218.22 C 883.1 1207.34 873.46 1198.47 861.53 1198.47 C 849.65 1198.47 840 1207.3 840 1218.19 C 840 1226.8 846.04 1234.05 854.43 1236.75 L 854.43 1269.37 C 854.43 1278.2 859.73 1287.46 865.93 1293.37 C 865.73 1293.19 865.53 1293.05 865.93 1293.37 C 866.08 1293.48 914.01 1335.08 914.01 1335.08 C 916.91 1338.39 918.99 1342.79 919.07 1347.29 L 919.07 1370.11 C 902.6 1373.14 890.2 1386.44 890.2 1402.44 C 890.2 1420.64 906.32 1435.42 926.21 1435.42 C 946.1 1435.42 962.22 1420.68 962.22 1402.44 C 962.22 1386.47 949.82 1373.14 933.31 1370.11 L 933.31 1347.69 C 933.31 1347.62 933.31 1347.58 933.31 1347.51 L 933.31 1297.88 C 933.43 1293.37 935.47 1289.01 938.41 1285.7 C 938.41 1285.7 986.34 1244.14 986.49 1244.03 C 986.89 1243.71 986.65 1243.85 986.49 1244.03 C 992.69 1238.12 997.99 1228.86 997.99 1220.03 L 997.99 1188.6 L 1012.42 1188.6 L 1012.42 1149.09 L 969.31 1149.09 L 969.31 1188.6 L 983.75 1188.6 C 983.75 1188.6 983.71 1196.89 983.71 1220.39 C 983.59 1224.89 981.55 1229.29 978.61 1232.61 L 933.35 1271.93 L 933.35 1119.47 L 951.16 1119.47 L 926.25 1080 Z" fill="#cc6600" stroke="none" pointer-events="all"/><path d="M 1102.83 381.71 C 1160.84 381.71 1206.84 334.45 1206.84 270.93 C 1206.84 212.12 1165.15 158.42 1102.99 158.42 C 1048.36 157.99 1001.54 208.76 1001.54 270.04 C 1001.54 335.32 1052.76 381.71 1102.83 381.71 Z M 1102.56 420 C 1029 420 966.98 352.99 966.98 269.08 C 966.98 186.18 1031.06 120.08 1100.14 120.08 C 1179.77 120.08 1241.59 186.96 1241.59 269.8 C 1241.59 347.85 1184.29 420 1102.56 420 Z" fill="#000000" stroke="none" pointer-events="all" transform="translate(2,3)" opacity="0.25"/><path d="M 1102.83 381.71 C 1160.84 381.71 1206.84 334.45 1206.84 270.93 C 1206.84 212.12 1165.15 158.42 1102.99 158.42 C 1048.36 157.99 1001.54 208.76 1001.54 270.04 C 1001.54 335.32 1052.76 381.71 1102.83 381.71 Z M 1102.56 420 C 1029 420 966.98 352.99 966.98 269.08 C 966.98 186.18 1031.06 120.08 1100.14 120.08 C 1179.77 120.08 1241.59 186.96 1241.59 269.8 C 1241.59 347.85 1184.29 420 1102.56 420 Z" fill="#054f97" stroke="none" pointer-events="all"/><path d="M 930.07 381.55 C 990.33 381.55 1040.83 329.18 1040.83 271.48 C 1040.59 246.9 1035.34 222.98 1021.52 204.05 C 1028.49 193.82 1036.94 184.95 1046.39 177.72 C 1073.16 216.13 1081.06 260.17 1072.09 302.67 C 1051.34 387.73 980.22 419.98 930.18 419.98 C 930.14 419.38 930.1 418.58 930.06 417.64 Z M 930 120.34 C 964.93 120 1002.4 134.93 1020.7 150.91 C 1010.95 159.07 1001.43 170.23 995.9 178.02 C 977.53 164.47 951.81 158.66 930.1 158.5 Z" fill="#ec1c23" stroke="none" pointer-events="all"/><path d="M 1164.35 361.15 C 1149.46 337.96 1137.43 311.39 1136.54 271.59 C 1136.54 183.75 1204.5 120.3 1282.12 120.3 L 1282.13 158.17 C 1233.96 158.17 1175.88 191.17 1171.52 269.78 C 1171.19 299.93 1179.45 317.97 1188.94 334.28 C 1182.31 344.72 1173.82 354 1164.35 361.15 Z M 1213.76 359.95 C 1235.93 376.1 1260.09 381.43 1282.2 381.43 L 1282.14 419.58 C 1243.98 419.58 1211.83 405.9 1189.11 387.66 C 1198.4 379.65 1206.55 370.34 1213.76 359.95 Z" fill="#3cac48" stroke="none" pointer-events="all"/><rect x="40" y="1010" width="390" height="310" fill="none" stroke="none" pointer-events="all"/><path d="M 430 1164.98 C 430 1141.13 388.53 1123.52 333.33 1114.01 C 337.81 1102.37 341.55 1091.07 344.11 1080.55 C 352.68 1045.4 348.55 1021.44 332.5 1013.09 C 328.53 1011.05 323.92 1010 318.89 1010 C 296.97 1010 266.4 1029.89 235 1062.62 C 203.6 1029.86 173.03 1010 151.11 1010 C 146.08 1010 141.47 1011.05 137.5 1013.12 C 114.52 1025.05 118.34 1066.23 136.83 1114.05 C 81.51 1123.48 40 1141.13 40 1164.98 C 40 1188.84 81.47 1206.45 136.67 1215.95 C 132.15 1227.6 128.45 1238.9 125.89 1249.42 C 117.35 1284.6 121.45 1308.56 137.5 1316.88 C 141.47 1318.95 146.08 1320 151.11 1320 C 173.07 1320 203.64 1300.11 235 1267.38 C 266.4 1300.11 296.97 1320 318.89 1320 C 323.96 1320 328.53 1318.95 332.5 1316.88 C 348.55 1308.56 352.68 1284.6 344.11 1249.42 C 341.55 1238.9 337.85 1227.6 333.33 1215.95 C 388.53 1206.48 430 1188.84 430 1164.98 Z M 318.89 1019.05 C 322.15 1019.05 325.06 1019.72 327.46 1020.94 C 339.23 1027.05 341.71 1048.06 334.27 1078.62 C 331.67 1089.21 327.94 1100.58 323.29 1112.4 C 307.04 1109.98 289.81 1108.22 272.22 1107.17 C 262.19 1093.52 251.92 1081 241.65 1069.74 C 271.24 1038.66 299.92 1019.05 318.89 1019.05 Z M 283 1189.92 C 277.65 1198.27 272.1 1206.34 266.48 1214.13 C 256.37 1214.59 245.86 1214.87 235 1214.87 C 224.14 1214.87 213.63 1214.62 203.52 1214.13 C 197.86 1206.34 192.35 1198.27 187 1189.92 C 181.57 1181.47 176.57 1173.19 171.97 1165.09 C 176.65 1156.77 181.65 1148.42 187 1140.08 C 192.35 1131.73 197.9 1123.66 203.52 1115.87 C 213.63 1115.41 224.14 1115.17 235 1115.17 C 245.86 1115.17 256.37 1115.41 266.48 1115.87 C 272.14 1123.66 277.65 1131.73 283 1140.08 C 288.35 1148.39 293.31 1156.74 297.99 1165.02 C 293.31 1173.3 288.35 1181.61 283 1189.92 Z M 303.5 1175.09 C 309.68 1186.66 315.19 1198.1 319.87 1209.18 C 307.2 1211.01 293.51 1212.45 278.95 1213.39 C 283.24 1207.25 287.49 1200.94 291.7 1194.45 C 295.87 1188.03 299.76 1181.54 303.5 1175.09 Z M 259.55 1223.43 C 251.49 1234.02 243.22 1243.95 235 1253.03 C 226.78 1243.95 218.55 1233.98 210.45 1223.43 C 218.63 1223.74 226.82 1223.92 235 1223.92 C 243.18 1223.92 251.37 1223.74 259.55 1223.43 Z M 191.01 1213.43 C 176.45 1212.45 162.76 1211.04 150.09 1209.22 C 154.77 1198.13 160.28 1186.73 166.46 1175.12 C 170.24 1181.65 174.17 1188.1 178.26 1194.48 C 182.43 1200.94 186.68 1207.29 191.01 1213.43 Z M 166.42 1154.98 C 160.05 1143.09 154.54 1131.66 149.93 1120.82 C 162.64 1118.99 176.37 1117.55 191.01 1116.57 C 186.68 1122.71 182.43 1129.03 178.26 1135.55 C 174.09 1142.01 170.2 1148.53 166.42 1154.98 Z M 210.45 1106.57 C 218.51 1095.98 226.74 1086.05 234.96 1076.93 C 243.18 1086.02 251.45 1095.98 259.51 1106.57 C 251.37 1106.26 243.14 1106.08 234.96 1106.08 C 226.82 1106.08 218.63 1106.26 210.45 1106.57 Z M 291.74 1135.55 C 287.57 1129.03 283.32 1122.71 278.99 1116.57 C 293.55 1117.55 307.2 1118.99 319.91 1120.78 C 315.23 1131.87 309.72 1143.3 303.54 1154.88 C 299.76 1148.46 295.87 1141.97 291.74 1135.55 Z M 142.54 1020.94 C 144.94 1019.68 147.85 1019.05 151.11 1019.05 C 170.08 1019.05 198.76 1038.66 228.35 1069.74 C 218.12 1081 207.81 1093.52 197.78 1107.17 C 180.11 1108.22 162.84 1109.98 146.51 1112.43 C 127.43 1064.06 126.88 1029.08 142.54 1020.94 Z M 50.07 1164.98 C 50.07 1148.71 84.03 1131.69 140.14 1122.33 C 145.92 1136.25 152.88 1150.63 160.71 1164.91 C 152.69 1179.44 145.72 1193.78 139.94 1207.6 C 83.95 1198.27 50.07 1181.26 50.07 1164.98 Z M 151.11 1310.95 C 147.81 1310.95 145.02 1310.32 142.54 1309.06 C 130.77 1302.95 128.29 1281.94 135.73 1251.38 C 138.33 1240.79 142.06 1229.39 146.71 1217.6 C 162.96 1220.06 180.19 1221.78 197.78 1222.83 C 207.81 1236.48 218.08 1249 228.35 1260.26 C 198.76 1291.34 170.08 1310.95 151.11 1310.95 Z M 334.27 1251.38 C 341.71 1281.94 339.23 1302.95 327.46 1309.06 C 325.02 1310.28 322.15 1310.95 318.89 1310.95 C 299.92 1310.95 271.24 1291.34 241.69 1260.26 C 251.96 1249 262.23 1236.44 272.26 1222.83 C 289.85 1221.78 307.08 1220.02 323.33 1217.6 C 327.94 1229.39 331.71 1240.79 334.27 1251.38 Z M 330.02 1207.6 C 324.28 1193.82 317.31 1179.51 309.33 1164.98 C 317.35 1150.46 324.28 1136.15 330.06 1122.36 C 386.09 1131.73 419.97 1148.74 419.97 1164.98 C 419.93 1181.26 386.05 1198.27 330.02 1207.6 Z" fill="#cc0000" stroke="#cc0000" stroke-miterlimit="10" pointer-events="all"/><ellipse cx="235" cy="1164.98" rx="21.404358353510897" ry="19.083399343668667" fill="#cc0000" stroke="#cc0000" pointer-events="all"/><path d="M 1180 790 L 1220 830 L 1180 870 L 1140 830 Z" fill="rgb(255, 255, 255)" stroke="rgb(0, 0, 0)" stroke-miterlimit="10" pointer-events="all"/></g></svg>